<?xml version="1.0" encoding="UTF-8" standalone="no"?>
<!DOCTYPE svg PUBLIC "-//W3C//DTD SVG 1.1//EN" "http://www.w3.org/Graphics/SVG/1.1/DTD/svg11.dtd">
<svg width="100%" height="100%" viewBox="0 0 98 98" version="1.1" xmlns="http://www.w3.org/2000/svg" xmlns:xlink="http://www.w3.org/1999/xlink" xml:space="preserve" xmlns:serif="http://www.serif.com/" style="fill-rule:evenodd;clip-rule:evenodd;stroke-linejoin:round;stroke-miterlimit:2;">
    <g transform="matrix(1,0,0,1,-338.492,-113.319)">
        <path d="M363.76,181.635C357.557,184.323 352.5,186.052 349.257,186.529C348.78,186.6 348.252,186.609 347.838,186.6C347.999,186.3 348.208,185.947 348.435,185.647C350.105,183.446 353.361,180.497 357.77,177.081C358.642,176.405 358.802,175.148 358.126,174.275C357.45,173.402 356.192,173.243 355.32,173.919C349.684,178.285 345.837,182.029 344.385,184.504C343.299,186.355 343.36,187.868 343.933,188.861C344.34,189.566 345.028,190.14 346.084,190.433C346.963,190.678 348.23,190.724 349.839,190.487C353.524,189.944 359.459,187.904 366.73,184.691C376.116,193.056 390.178,194.898 401.658,188.27C413.135,181.644 418.571,168.55 416.024,156.241C423.164,151.033 428.217,146.498 430.228,143.523C431.671,141.388 431.686,139.627 431.067,138.554C430.497,137.568 429.235,136.764 427.119,136.767C424.3,136.772 419.232,138.185 412.748,140.816C411.725,141.231 411.232,142.399 411.647,143.422C412.062,144.444 413.229,144.938 414.252,144.523C419.312,142.47 423.405,141.166 426.09,140.839C426.436,140.797 426.817,140.793 427.139,140.803C426.869,141.275 426.465,141.92 426.016,142.45C423.871,144.979 419.987,148.326 414.861,152.131C414.269,150.497 413.525,148.892 412.627,147.335C404.357,133.012 386.015,128.098 371.692,136.367C357.369,144.636 352.454,162.979 360.724,177.302C361.622,178.859 362.64,180.304 363.76,181.635ZM370.77,182.849C378.86,189.107 390.258,190.233 399.658,184.806C412.069,177.64 416.328,161.747 409.163,149.335C401.997,136.924 386.103,132.666 373.692,139.831C361.281,146.997 357.022,162.891 364.188,175.302C365.166,176.997 366.308,178.54 367.582,179.924C369.376,179.097 371.245,178.204 373.175,177.25C374.164,176.761 375.365,177.167 375.854,178.157C376.343,179.147 375.936,180.347 374.947,180.836C373.522,181.54 372.128,182.211 370.77,182.849ZM379.566,176.578L379.737,176.875L378.488,181.539C378.35,182.052 378.422,182.598 378.688,183.057L380.688,186.521C381.24,187.478 382.463,187.805 383.42,187.253L390.348,183.253C390.807,182.988 391.142,182.551 391.28,182.039L392.529,177.375L406.483,169.319C406.842,169.111 407.128,168.798 407.3,168.422L410.914,160.562C411.185,159.973 411.153,159.289 410.829,158.727C410.504,158.165 409.928,157.796 409.282,157.735L400.668,156.935C400.256,156.896 399.842,156.987 399.483,157.194L385.51,165.261L380.744,164.08C380.245,163.956 379.717,164.029 379.27,164.285L372.427,168.196C371.965,168.46 371.628,168.897 371.489,169.411C371.35,169.924 371.422,170.472 371.688,170.933L373.688,174.397C373.953,174.856 374.39,175.191 374.902,175.329L379.566,176.578ZM382.616,173.861C382.35,173.402 381.914,173.066 381.401,172.929L376.737,171.679L376.156,170.672L380.559,168.155L385.331,169.338C385.833,169.463 386.364,169.388 386.812,169.129L400.932,160.977L406.1,161.457L403.932,166.173L389.812,174.325C389.352,174.59 389.017,175.027 388.88,175.539L387.63,180.203L383.152,182.789L382.566,181.774L383.816,177.111C383.953,176.598 383.881,176.052 383.616,175.593L382.616,173.861Z" style="fill:white;"/>
    </g>
</svg>
